HIERARCHY
ROOT Hips
{
	OFFSET -3.958830 18.904000 13.208200
	CHANNELS 6 Xposition Yposition Zposition Zrotation Yrotation Xrotation 
	JOINT LHipJoint
	{
		OFFSET 0.000000 0.000000 0.000000
		CHANNELS 3 Zrotation Yrotation Xrotation
		JOINT LeftUpLeg
		{
			OFFSET 1.800000 -1.400000 0.085000
			CHANNELS 3 Zrotation Yrotation Xrotation
			JOINT LeftLeg
			{
				OFFSET 2.215000 -6.000000 0.000000
				CHANNELS 3 Zrotation Yrotation Xrotation
				JOINT LeftFoot
				{
					OFFSET 2.500000 -6.900000 0.000000
					CHANNELS 3 Zrotation Yrotation Xrotation
					JOINT LeftToeBase
					{
						OFFSET 0.200000 -0.500000 1.950000
						CHANNELS 3 Zrotation Yrotation Xrotation
						End Site
						{
							OFFSET 0.000000 0.000000 0.000000
						}
					}
				}
			}
		}
	}
	JOINT RHipJoint
	{
		OFFSET 0.000000 0.000000 0.000000
		CHANNELS 3 Zrotation Yrotation Xrotation
		JOINT RightUpLeg
		{
			OFFSET -1.800000 -1.400000 0.085000
			CHANNELS 3 Zrotation Yrotation Xrotation
			JOINT RightLeg
			{
				OFFSET -2.215000 -6.000000 0.000000
				CHANNELS 3 Zrotation Yrotation Xrotation
				JOINT RightFoot
				{
					OFFSET -2.500000 -6.900000 0.000000
					CHANNELS 3 Zrotation Yrotation Xrotation
					JOINT RightToeBase
					{
						OFFSET -0.200000 -0.500000 1.950000
						CHANNELS 3 Zrotation Yrotation Xrotation
						End Site
						{
							OFFSET 0.000000 0.000000 0.000000
						}
					}
				}
			}
		}
	}
	JOINT LowerBack
	{
		OFFSET 0.000000 0.000000 0.000000
		CHANNELS 3 Zrotation Yrotation Xrotation
		JOINT Spine
		{
			OFFSET -0.087000 1.940000 -0.288900
			CHANNELS 3 Zrotation Yrotation Xrotation
			JOINT Spine1
			{
				OFFSET 0.000000 1.950000 0.060000
				CHANNELS 3 Zrotation Yrotation Xrotation
				JOINT Neck
				{
					OFFSET 0.000000 0.000000 0.000000
					CHANNELS 3 Zrotation Yrotation Xrotation
					JOINT Neck1
					{
						OFFSET 0.000000 1.600000 0.340000
						CHANNELS 3 Zrotation Yrotation Xrotation
						JOINT Head
						{
							OFFSET 0.000000 1.667000 -0.240000
							CHANNELS 3 Zrotation Yrotation Xrotation
							End Site
							{
								OFFSET 0.000000 0.000000 0.000000
							}
						}
					}
				}
				JOINT LeftShoulder
				{
					OFFSET 0.000000 0.000000 0.000000
					CHANNELS 3 Zrotation Yrotation Xrotation
					JOINT LeftArm
					{
						OFFSET 2.700000 1.550000 -0.730000
						CHANNELS 3 Zrotation Yrotation Xrotation
						JOINT LeftForeArm
						{
							OFFSET 5.450000 0.000000 0.000000
							CHANNELS 3 Zrotation Yrotation Xrotation
							JOINT LeftHand
							{
								OFFSET 3.450000 0.000000 0.000000
								CHANNELS 3 Zrotation Yrotation Xrotation
								JOINT LeftHandIndex1
								{
									OFFSET 0.750000 0.000000 0.000000
									CHANNELS 3 Zrotation Yrotation Xrotation
									End Site
									{
										OFFSET 0.000000 0.000000 0.000000
									}
								}
							}
						}
					}
				}
				JOINT RightShoulder
				{
					OFFSET 0.000000 0.000000 0.000000
					CHANNELS 3 Zrotation Yrotation Xrotation
					JOINT RightArm
					{
						OFFSET -2.700000 1.550000 -0.730000
						CHANNELS 3 Zrotation Yrotation Xrotation
						JOINT RightForeArm
						{
							OFFSET -5.450000 0.000000 0.000000
							CHANNELS 3 Zrotation Yrotation Xrotation
							JOINT RightHand
							{
								OFFSET -3.450000 0.000000 0.000000
								CHANNELS 3 Zrotation Yrotation Xrotation
								JOINT RightHandIndex1
								{
									OFFSET -0.750000 0.000000 0.000000
									CHANNELS 3 Zrotation Yrotation Xrotation
									End Site
									{
										OFFSET 0.000000 0.000000 0.000000
									}
								}
							}
						}
					}
				}
			}
		}
	}
}
MOTION
Frames: 13
Frame Time: 0.016667
-0.239770 16.922700 -0.899830 -2.783304 -16.270502 3.930120 -14.672001 12.005504 4.088579 4.524153 -4.827851 -36.871590 -4.445868 4.831048 16.442280 -0.798591 3.301343 3.550694 -0.079840 -0.451880 -0.142370 18.754402 -11.382503 2.685962 -3.206221 1.675140 -13.359665 7.558721 -5.935207 16.678691 -0.020469 -3.762404 3.368947 -0.159320 0.576230 0.058700 -4.908816 0.648665 -7.587801 17.443108 3.343033 10.681464 -6.802364 5.408302 0.216726 1.538186 -4.078064 -6.657063 -8.191549 3.645512 35.813664 -3.328170 2.145360 1.269270 -17.489925 5.561616 0.862154 -48.677753 10.106256 -10.525095 -43.093197 -29.964425 7.255253 -3.948966 2.958864 0.443110 0.334840 -0.382720 0.123380 12.929805 -0.746662 2.367056 60.320310 -0.801697 -9.849173 22.616281 17.234045 0.861786 2.096281 -1.233520 -0.439410 0.339210 0.304990 -0.222660 
-0.220990 16.927500 -0.900120 -2.388175 -16.243396 3.768814 -14.678192 12.011648 4.131859 4.869535 -4.855314 -37.052934 -4.817567 4.971101 16.650663 -0.776784 3.360783 3.524424 -0.074420 -0.440960 -0.139880 18.741692 -11.384079 2.661964 -3.613133 1.693174 -13.471377 7.323935 -5.896180 16.794788 -0.019270 -3.739829 3.377834 -0.160200 0.567860 0.055280 -4.878850 0.613521 -7.618512 17.200509 3.305122 10.935131 -6.935180 5.409409 0.042300 1.581924 -4.162132 -6.750934 -8.427979 3.680647 36.180412 -3.234520 2.048200 1.200050 -17.630270 5.397928 0.853422 -48.755591 9.923731 -10.502864 -42.831851 -29.917273 7.183225 -3.938585 2.952058 0.444460 0.325520 -0.372630 0.126720 12.982798 -0.464483 2.482887 60.276675 -0.820797 -9.855483 22.559685 17.228843 0.856911 2.103629 -1.228096 -0.431460 0.340460 0.296980 -0.217820 
-0.188650 16.936960 -0.899380 -1.797693 -16.226585 3.496107 -14.685536 12.013109 4.201318 5.637964 -4.861401 -37.429702 -5.376521 5.273181 17.371791 -0.746580 3.516471 3.453540 -0.058480 -0.419540 -0.127880 18.727036 -11.388784 2.622581 -4.185386 1.714332 -13.614843 6.843718 -5.796915 16.925725 -0.018715 -3.695385 3.388127 -0.155880 0.547600 0.050840 -4.844656 0.578308 -7.663845 16.912499 3.229036 11.328166 -7.203613 5.397909 -0.214752 1.648691 -4.274054 -6.829489 -8.754927 3.747587 36.803464 -3.061870 1.901830 0.919080 -17.886921 5.220115 0.787783 -48.725130 9.590212 -10.393410 -42.483158 -29.828667 7.095566 -3.919123 2.946621 0.453170 0.306640 -0.355650 0.127890 13.090281 -0.137142 2.581167 60.258700 -0.715746 -9.766555 22.227210 17.031167 0.813699 2.114776 -1.219892 -0.420590 0.338790 0.284530 -0.216340 
-0.141820 16.948510 -0.896680 -1.136371 -16.259806 3.222592 -14.684656 11.994155 4.285291 6.802534 -4.827665 -37.944820 -6.031754 5.745674 18.674492 -0.709552 3.800797 3.335542 -0.047650 -0.407040 -0.123280 18.723689 -11.400552 2.568833 -4.929107 1.787608 -13.915646 6.269838 -5.713641 17.266983 -0.015311 -3.662846 3.394938 -0.153670 0.537960 0.052660 -4.843886 0.586014 -7.704221 16.938393 3.106052 11.654292 -7.841977 5.378034 -0.416200 1.799242 -4.442437 -6.897715 -9.191965 3.772727 37.465683 -3.006320 1.641410 0.713120 -18.312545 4.973903 0.663831 -48.556738 9.117483 -10.223129 -41.773459 -29.850578 6.973225 -3.910219 2.935886 0.462890 0.295600 -0.342450 0.131580 13.157533 0.252974 2.740485 60.242084 -0.609083 -9.678235 22.034129 16.938722 0.797974 2.117079 -1.211436 -0.413310 0.341510 0.279810 -0.214000 
-0.085280 16.959580 -0.890470 -0.644041 -16.337349 3.033264 -14.673750 11.964196 4.356306 8.327693 -4.657405 -38.409083 -6.568134 6.332425 20.366594 -0.659099 4.160756 3.188568 -0.031230 -0.381890 -0.114930 18.735323 -11.416785 2.517476 -5.560682 1.835930 -14.152587 5.609670 -5.571881 17.389153 -0.012780 -3.606914 3.416207 -0.146190 0.523530 0.045130 -4.883658 0.636921 -7.734499 17.390307 2.944364 11.843806 -8.677849 5.355910 -0.482936 2.014152 -4.619327 -7.008550 -9.638110 3.818008 38.184733 -2.889510 1.387060 0.384830 -18.642131 4.695451 0.576970 -48.647627 8.575349 -10.112574 -40.774037 -30.129046 6.877185 -3.892817 2.917445 0.471000 0.279960 -0.326100 0.137940 12.977253 0.648766 2.958277 60.315351 -0.478075 -9.595334 22.007645 16.979203 0.812394 2.120038 -1.203424 -0.405090 0.350140 0.266980 -0.210090 
-0.024100 16.972580 -0.882100 -0.154933 -16.444119 2.778524 -14.659473 11.947025 4.407023 10.101237 -4.363198 -38.516564 -7.169828 7.035484 22.179031 -0.609036 4.591940 3.006429 -0.005110 -0.349070 -0.095910 18.749572 -11.430976 2.464524 -6.346856 1.910962 -14.425669 5.131121 -5.503643 17.650212 -0.019410 -3.572789 3.420558 -0.134780 0.497340 0.042530 -4.933386 0.679853 -7.756706 17.949799 2.700808 12.009301 -9.652259 5.259398 -0.470775 2.263229 -4.850371 -7.101938 -10.220795 4.040430 39.116238 -2.776080 1.251340 -0.257770 -19.047211 4.422569 0.475123 -48.642004 8.005818 -9.996270 -39.520064 -30.528387 6.747750 -3.871247 2.902868 0.487250 0.257770 -0.302820 0.137870 12.793922 1.023209 3.139527 60.415490 -0.201265 -9.432797 21.897261 16.930908 0.826945 2.122042 -1.193455 -0.392340 0.352830 0.255250 -0.212160 
0.039540 16.984010 -0.873720 0.260924 -16.558356 2.707872 -14.650718 11.900593 4.468437 12.171669 -3.972062 -38.536278 -8.020894 7.879992 23.855683 -0.555700 5.100719 2.799202 0.009430 -0.333050 -0.083800 18.769536 -11.420262 2.403958 -7.055257 2.017794 -14.869890 4.622218 -5.405297 17.864417 -0.016242 -3.529392 3.422350 -0.126190 0.480800 0.041630 -4.991023 0.730055 -7.772122 18.614175 2.465387 11.943408 -10.678318 5.146861 -0.351829 2.530674 -5.082449 -7.185883 -10.772953 4.324418 39.749885 -2.700880 1.198800 -0.575880 -19.398441 4.142842 0.364795 -48.594143 7.318757 -9.806061 -38.115589 -30.929382 6.588475 -3.859988 2.893136 0.498750 0.243630 -0.290330 0.134470 12.524302 1.347589 3.358054 60.479342 -0.030751 -9.339609 22.112934 17.176292 0.896123 2.120532 -1.193500 -0.387800 0.352700 0.251430 -0.215770 
0.105640 16.992800 -0.866380 0.615099 -16.579722 2.772457 -14.649358 11.822880 4.546386 14.384400 -3.523209 -38.500702 -9.010593 8.809564 25.345567 -0.512697 5.659889 2.581737 0.013190 -0.336830 -0.074960 18.792107 -11.387659 2.338070 -7.744928 2.146346 -15.398008 4.269268 -5.365127 18.157390 -0.013247 -3.503299 3.415664 -0.121760 0.478080 0.042770 -5.048417 0.790809 -7.790417 19.301938 2.275114 11.732190 -11.702257 5.054435 -0.152118 2.834085 -5.248539 -7.242859 -11.192123 4.515710 40.275169 -2.758520 1.130260 -0.852000 -19.529442 3.933429 0.201540 -48.733726 6.340860 -9.473092 -36.482731 -31.201047 6.346147 -3.863752 2.868380 0.518320 0.237060 -0.284790 0.129480 11.969492 1.530276 3.585377 60.709902 0.153551 -9.250615 22.510920 17.518925 1.003439 2.108700 -1.189634 -0.397860 0.362800 0.258990 -0.224540 
0.175780 16.998980 -0.860170 1.072353 -16.549480 2.922881 -14.655391 11.728267 4.635937 16.446370 -3.122027 -38.435865 -9.961306 9.767524 26.795844 -0.455862 6.216947 2.371380 0.014890 -0.343120 -0.065750 18.812740 -11.343105 2.266087 -8.570351 2.262630 -16.034881 3.985495 -5.342350 18.423073 -0.003697 -3.482521 3.409700 -0.120320 0.478810 0.044390 -5.096031 0.852304 -7.808034 19.856296 2.106527 11.367385 -12.783209 4.944886 0.135739 3.180076 -5.346958 -7.321747 -11.468395 4.640988 40.632914 -2.882720 1.087240 -0.774260 -19.634570 3.581760 0.067569 -48.791627 5.217760 -9.072029 -34.677484 -31.353236 6.036089 -3.872391 2.850273 0.524510 0.237120 -0.285880 0.125220 11.327159 1.792212 3.870741 60.895622 0.304452 -9.159392 23.269691 18.000381 1.154193 2.097949 -1.199423 -0.403630 0.367120 0.263200 -0.230650 
0.248270 17.002610 -0.855030 1.581732 -16.441278 3.060068 -14.666475 11.642845 4.721562 18.275550 -2.777374 -38.306868 -10.718268 10.682455 28.253580 -0.410729 6.746883 2.173663 0.018160 -0.346370 -0.059230 18.829019 -11.296142 2.189440 -9.482107 2.337762 -16.649552 3.711683 -5.349912 18.752399 0.004008 -3.477799 3.399700 -0.114130 0.482950 0.044100 -5.128931 0.888672 -7.821702 20.294295 1.877385 11.034132 -13.867850 4.772709 0.458806 3.524268 -5.448196 -7.373536 -11.754070 4.783189 40.872862 -3.013190 1.043320 -0.883270 -19.747145 3.196942 -0.101983 -48.663308 3.998020 -8.572517 -32.892445 -31.201398 5.647660 -3.883224 2.826847 0.535340 0.239040 -0.288820 0.122510 10.707123 2.052639 4.148550 60.960546 0.460689 -9.068745 24.400504 18.638977 1.372912 2.077755 -1.211665 -0.414810 0.377380 0.269790 -0.238330 
0.322750 17.001820 -0.848510 2.226423 -16.371450 3.308375 -14.680967 11.559035 4.787843 19.835185 -2.481642 -38.033711 -11.462139 11.559819 29.490822 -0.357903 7.218560 2.001692 0.019310 -0.344610 -0.061330 18.842431 -11.251198 2.115899 -10.508657 2.391089 -17.429965 3.360074 -5.314843 18.965262 0.018640 -3.465664 3.389247 -0.105510 0.491090 0.044890 -5.152618 0.933283 -7.815788 20.488928 1.703235 10.491381 -14.972688 4.577255 0.842218 3.870393 -5.506989 -7.344881 -11.856077 4.924117 40.678984 -3.170770 1.115860 -0.743250 -19.792555 2.920071 -0.296724 -48.408005 2.746195 -8.008386 -31.159706 -30.907097 5.269845 -3.897256 2.820006 0.529820 0.247550 -0.298070 0.123050 10.030063 2.151953 4.358282 61.062180 0.676540 -8.906090 25.670198 19.318376 1.623494 2.059552 -1.242087 -0.420680 0.379510 0.273890 -0.239480 
0.402760 16.999930 -0.841570 2.844225 -16.166715 3.556944 -14.688371 11.506494 4.810720 21.033571 -2.266120 -37.582536 -11.895414 12.247779 30.562011 -0.313756 7.586849 1.869666 0.026040 -0.338460 -0.060760 18.856334 -11.218513 2.057517 -11.567509 2.402884 -18.192468 3.111855 -5.319375 19.174917 0.028010 -3.465548 3.374789 -0.094820 0.496800 0.048200 -5.181804 0.963166 -7.791833 20.794522 1.421945 9.933116 -16.181463 4.312374 1.305984 4.200184 -5.625646 -7.369762 -12.091189 5.074158 40.424747 -3.221450 1.078040 -0.702640 -19.762683 2.577443 -0.407034 -48.076530 1.670730 -7.541419 -29.857779 -30.878521 5.045516 -3.903960 2.821184 0.525480 0.253290 -0.303060 0.127670 9.320128 2.336529 4.609865 61.086299 0.840687 -8.815020 27.170692 20.234018 1.954391 2.038778 -1.278286 -0.423510 0.380940 0.273220 -0.239050 
0.488540 16.993140 -0.834770 3.337224 -15.962020 4.013644 -14.694979 11.465604 4.802638 22.046230 -2.048001 -37.034285 -12.206602 12.764546 31.186904 -0.269794 7.850247 1.781538 0.017670 -0.345180 -0.071780 18.871238 -11.185541 2.015059 -12.477433 2.442501 -19.197506 2.739555 -5.284054 19.455042 0.053112 -3.460025 3.368216 -0.092400 0.513920 0.050890 -5.211694 0.994371 -7.746158 21.262074 1.158954 9.198356 -17.300951 4.059220 1.806138 4.533624 -5.804376 -7.392760 -12.355292 5.102997 39.660410 -3.446220 0.998250 -0.196960 -19.668348 2.337257 -0.500938 -48.001749 0.703188 -7.140429 -28.639594 -30.979299 4.873199 -3.923940 2.828469 0.499050 0.272640 -0.322570 0.129070 8.550069 2.486262 4.890809 60.793679 0.875645 -8.742148 29.116810 21.486707 2.432963 2.018336 -1.329227 -0.423400 0.376570 0.276650 -0.232270 
